[Header]
FileType HTR
DataType HTRS
FileVersion 1
NumSegments 22
NumFrames 4
DataFrameRate 24
EulerRotationOrder ZYX
CalibrationUnits mm
RotationUnits Degrees
GlobalAxisofGravity Y
BoneLengthAxis Y
ScaleFactor 1.0
[SegmentNames&Hierarchy]
reference	GLOBAL
Hips	reference
Spine	Hips
Spine1	Spine
Neck	Spine1
Head	Neck
LeftShoulder	Spine1
LeftArm	LeftShoulder
LeftForeArm	LeftArm
LeftHand	LeftForeArm
RightShoulder	Spine1
RightArm	RightShoulder
RightForeArm	RightArm
RightHand	RightForeArm
LeftUpLeg	Hips
LeftLeg	LeftUpLeg
LeftFoot	LeftLeg
LeftToeBase	LeftFoot
RightUpLeg	Hips
RightLeg	RightUpLeg
RightFoot	RightLeg
RightToeBase	RightFoot
[BasePosition]
reference	0	0	0	0	0	0	1
Hips	0	0	0	0	0	0	1
Spine	0	0	0	-0	-90	0	1
Spine1	0	0	0	0	0	0	1
Neck	0	0	0	82.64767223	-82.64767223	-90	1
Head	0	0	0	-0	-90	0	1
LeftShoulder	0	0	0	0	0	0	1
LeftArm	0	0	0	0	0	0	1
LeftForeArm	0	0	0	0	0	0	1
LeftHand	0	0	0	0	0	0	1
RightShoulder	0	0	0	0	-0	180	1
RightArm	0	0	0	0	-0	180	1
RightForeArm	0	0	0	0	-0	180	1
RightHand	0	0	0	0	-0	180	1
LeftUpLeg	0	0	0	-0	90	0	1
LeftLeg	0	0	0	-0	90	0	1
LeftFoot	0	0	0	-23.42853957	23.42853957	-90	1
LeftToeBase	0	0	0	0	-0	-90	1
RightUpLeg	0	0	0	-0	90	0	1
RightLeg	0	0	0	-0	90	0	1
RightFoot	0	0	0	-23.42853957	23.42853957	-90	1
RightToeBase	0	0	0	0	-0	-90	1
[reference]
1	0	0	0	0	-0	0	1.0
2	0	0	0	0	-0	0	1.0
3	0	0	0	0	-0	0	1.0
4	0	0	0	0	-0	0	1.0
[Hips]
1	5.091800213	-0.8735799789	7.808780193	2.12756753	-0.6628667712	-129.8696136	1.0
2	4.987173557	-0.8735799789	7.855015755	2.12756753	-0.6628667712	-129.8696136	1.0
3	4.874942303	-0.8735799789	7.938779831	2.12756753	-0.6628667712	-129.8696136	1.0
4	4.646752357	-0.8735799789	8.134493828	2.11607337	-0.6602299213	-129.4624023	1.0
[Spine]
1	0	0	0.7457100153	-29.5669899	89.32176971	-22.88981056	1.0
2	0	0	0.7457100153	-69.78687286	89.35365295	-63.02616882	1.0
3	0	0	0.7457100153	-109.2117462	89.5418396	-102.2702026	1.0
4	0	0	0.7457100153	-111.7322235	90.02212524	-104.6437225	1.0
[Spine1]
1	0	0	2.140589952	7.499171734	-2.090544939	-0.2388945669	1.0
2	0	0	2.140589952	7.163965702	-2.952413321	-0.3801732659	1.0
3	0	0	2.140589952	6.297516823	-3.311943054	-0.3352453709	1.0
4	0	0	2.140589952	5.411203384	-3.980699062	-0.1817245483	1.0
[Neck]
1	0	0	2.32246995	85.84069824	72.90675354	100.6942368	1.0
2	0	0	2.32246995	87.65723419	72.58621979	101.8180237	1.0
3	0	0	2.32246995	88.2450943	72.38005066	101.7891846	1.0
4	0	0	2.32246995	88.02069855	71.81873322	101.6125336	1.0
[Head]
1	0	-0.1818799973	1.409579992	-73.58682251	101.0661163	-70.59352875	1.0
2	0	-0.1818799973	1.409579992	-76.26798248	101.1416245	-72.27857208	1.0
3	0	-0.1818799973	1.409579992	-75.22272491	101.4341583	-71.23420715	1.0
4	0	-0.1818799973	1.409579992	-74.56620789	102.1118011	-71.29001617	1.0
[LeftShoulder]
1	0.3668199778	0.02662999928	1.946700096	-17.32707024	-0.4104129076	-12.51569748	1.0
2	0.3668199778	0.02662999928	1.946700096	-17.34183884	-0.860065043	-12.42867851	1.0
3	0.3668199778	0.02662999928	1.946700096	-16.97473145	-1.12535882	-12.40642738	1.0
4	0.3668199778	0.02662999928	1.946700096	-17.30599976	-2.219182491	-12.17504692	1.0
[LeftArm]
1	1.140689969	0	0	32.87488937	61.80846024	-4.968542576	1.0
2	1.140689969	0	0	30.84577179	60.87776566	-7.160860062	1.0
3	1.140689969	0	0	28.60141754	59.56396484	-9.204946518	1.0
4	1.140689969	0	0	28.13817215	58.58688354	-9.154596329	1.0
[LeftForeArm]
1	2.749800205	0	0	42.05582047	-17.36896515	-133.2147827	1.0
2	2.749800205	0	0	42.72314453	-17.02894783	-134.2280884	1.0
3	2.749800205	0	0	43.00637054	-16.83593369	-135.0766602	1.0
4	2.749800205	0	0	43.17990875	-16.71852112	-136.141922	1.0
[LeftHand]
1	2.295179844	0	0	6.473708153	-17.69440269	-21.07221031	1.0
2	2.295179844	0	0	6.969346046	-17.55258369	-21.15917969	1.0
3	2.295179844	0	0	6.880402088	-17.51901817	-20.96451759	1.0
4	2.295179844	0	0	6.447951794	-18.31034851	-20.71872711	1.0
[RightShoulder]
1	-0.3601199985	0.02662999928	1.946700096	-7.980214596	5.870332718	-176.8426666	1.0
2	-0.3601199985	0.02662999928	1.946700096	-7.862834454	5.985043526	-176.8137817	1.0
3	-0.3601199985	0.02662999928	1.946700096	-7.297761917	5.827377796	-176.8278503	1.0
4	-0.3601199985	0.02662999928	1.946700096	-8.024478912	6.149195194	-176.7141266	1.0
[RightArm]
1	-1.140689969	0	0	33.15038681	-73.25119781	-156.7188568	1.0
2	-1.140689969	0	0	34.15799332	-73.24875641	-157.7436066	1.0
3	-1.140689969	0	0	34.44268799	-72.79573059	-158.5787964	1.0
4	-1.140689969	0	0	40.10621262	-73.10211945	-164.3933258	1.0
[RightForeArm]
1	-2.749800205	0	0	52.15532303	22.47859383	-48.77952576	1.0
2	-2.749800205	0	0	50.73691177	21.6775856	-49.20204163	1.0
3	-2.749800205	0	0	49.24968338	20.67521286	-49.29867172	1.0
4	-2.749800205	0	0	48.11841583	20.08439827	-49.49922943	1.0
[RightHand]
1	-2.295179844	0	0	8.635258675	23.1894989	-161.560791	1.0
2	-2.295179844	0	0	9.204977989	23.11273575	-161.310379	1.0
3	-2.295179844	0	0	9.723108292	22.69549942	-161.0853271	1.0
4	-2.295179844	0	0	10.11630344	23.35550499	-160.7012634	1.0
[LeftUpLeg]
1	0.9094099998	0	0	-15.57977295	-102.383255	-13.93301392	1.0
2	0.9094099998	0	0	-10.06943321	-102.5837708	-20.11018753	1.0
3	0.9094099998	0	0	-11.23172951	-102.3354034	-18.09161568	1.0
4	0.9094099998	0	0	-16.05182648	-102.5404816	-9.041063309	1.0
[LeftLeg]
1	0	0	-4.498080254	61.46310425	-63.91513824	-9.696631432	1.0
2	0	0	-4.498080254	63.87670517	-63.64932632	-10.24717808	1.0
3	0	0	-4.498080254	61.15671158	-65.32055664	-9.699426651	1.0
4	0	0	-4.498080254	54.46990204	-67.94920349	-11.34100056	1.0
[LeftFoot]
1	0	0	-3.729400158	-54.34648132	8.265073776	117.2317352	1.0
2	0	0	-3.729400158	-54.0077858	8.858673096	115.7955475	1.0
3	0	0	-3.729400158	-53.97235107	8.074225426	115.1368179	1.0
4	0	0	-3.729400158	-50.99902725	5.703220367	114.4673386	1.0
[LeftToeBase]
1	0	-1.364109993	-0.5911099911	-1.999999995e-006	0	-9.999999975e-007	1.0
2	0	-1.364109993	-0.5911099911	-1.999999995e-006	0	-9.999999975e-007	1.0
3	0	-1.364109993	-0.5911099911	-1.999999995e-006	0	-9.999999975e-007	1.0
4	0	-1.364109993	-0.5911099911	-1.999999995e-006	0	-9.999999975e-007	1.0
[RightUpLeg]
1	-0.9094099998	0	0	92.42818451	-76.73300171	-100.2292404	1.0
2	-0.9094099998	0	0	88.95639038	-76.57388306	-95.5533371	1.0
3	-0.9094099998	0	0	83.17379761	-76.96476746	-88.81773376	1.0
4	-0.9094099998	0	0	75.01838684	-77.31321716	-78.71051788	1.0
[RightLeg]
1	0	0	-4.498080254	30.0686512	-81.75788879	9.488479614	1.0
2	0	0	-4.498080254	23.58291245	-82.50939941	14.59930038	1.0
3	0	0	-4.498080254	28.88777924	-82.71212006	7.041060448	1.0
4	0	0	-4.498080254	26.37850571	-83.63973999	5.035904884	1.0
[RightFoot]
1	0	0	-3.729400158	-66.77254486	-34.39624786	93.69297791	1.0
2	0	0	-3.729400158	-65.71842957	-34.6169281	94.87265015	1.0
3	0	0	-3.729400158	-64.33557892	-33.85829163	97.89909363	1.0
4	0	0	-3.729400158	-57.91965485	-33.99841309	101.5553284	1.0
[RightToeBase]
1	0	-1.364109993	-0.5911099911	-1.999999995e-006	9.999999975e-007	9.999999975e-007	1.0
2	0	-1.364109993	-0.5911099911	-1.999999995e-006	9.999999975e-007	9.999999975e-007	1.0
3	0	-1.364109993	-0.5911099911	-1.999999995e-006	9.999999975e-007	9.999999975e-007	1.0
4	0	-1.364109993	-0.5911099911	-1.999999995e-006	9.999999975e-007	9.999999975e-007	1.0
[EndOfFile]
